<?xml version="1.0" encoding="UTF-8"?>
<!-- Generated by Pixelmator Pro 3.5.7 -->
<svg width="73" height="73" viewBox="0 0 73 73" xmlns="http://www.w3.org/2000/svg">
    <clipPath id="clipPath1">
        <path d="M 0 0 L 73 0 L 73 73 L 0 73 Z"/>
    </clipPath>
    <g id="Group" clip-path="url(#clipPath1)">
        <path id="Path" fill="#a1bad6" stroke="none" d="M 68.5 0.5 L 4.5 0.5 C 2.29086 0.5 0.5 2.290863 0.5 4.5 L 0.5 68.5 C 0.5 70.709099 2.29086 72.5 4.5 72.5 L 68.5 72.5 C 70.709099 72.5 72.5 70.709099 72.5 68.5 L 72.5 4.5 C 72.5 2.290863 70.709099 0.5 68.5 0.5 Z"/>
        <path id="path1" fill="#1da1f2" stroke="none" d="M 40.887901 36.8843 L 39 37.997101 L 39 58 L 56 48.002998 L 56 28 L 40.887901 36.8843 Z"/>
        <path id="path2" fill="#1da1f2" stroke="none" d="M 44 18.819801 L 37.1926 15 L 19 25.180298 L 25.8165 29 L 44 18.819801 Z"/>
        <path id="path3" fill="#1da1f2" stroke="none" d="M 55 25.4772 L 47.163601 21 L 29 31.5228 L 30.0364 32.060799 L 36.836399 36 L 43.599998 32.0882 L 55 25.4772 Z"/>
        <path id="path4" fill="#1da1f2" stroke="none" d="M 27.648899 38.588699 L 24.497101 36.938999 L 24.497101 31.810501 L 18 28 L 18 48.002998 L 35 58 L 35 37.997002 L 27.648899 33.684399 L 27.648899 38.588699 Z"/>
    </g>
</svg>
